<mxfile host="app.diagrams.net" agent="Mozilla/5.0 (Windows NT 10.0; Win64; x64) AppleWebKit/537.36 (KHTML, like Gecko) Chrome/133.0.0.0 Safari/537.36 Edg/133.0.0.0" version="26.0.15">
  <diagram name="Page-1" id="s-tB0qhxOe2AXJObOmEG">
    <mxGraphModel dx="1473" dy="816" grid="1" gridSize="10" guides="1" tooltips="1" connect="1" arrows="1" fold="1" page="1" pageScale="1" pageWidth="850" pageHeight="1100" math="0" shadow="0">
      <root>
        <mxCell id="0" />
        <mxCell id="1" parent="0" />
        <mxCell id="cZZAomPa4nCYVF2yaK9X-1" value="" style="ellipse;html=1;shape=startState;fillColor=#000000;strokeColor=#ff0000;" vertex="1" parent="1">
          <mxGeometry x="410" width="30" height="30" as="geometry" />
        </mxCell>
        <mxCell id="cZZAomPa4nCYVF2yaK9X-2" value="" style="edgeStyle=orthogonalEdgeStyle;html=1;verticalAlign=bottom;endArrow=open;endSize=8;strokeColor=#ff0000;rounded=0;" edge="1" source="cZZAomPa4nCYVF2yaK9X-1" parent="1">
          <mxGeometry relative="1" as="geometry">
            <mxPoint x="425" y="90" as="targetPoint" />
            <Array as="points">
              <mxPoint x="425" y="60" />
              <mxPoint x="426" y="60" />
            </Array>
          </mxGeometry>
        </mxCell>
        <mxCell id="cZZAomPa4nCYVF2yaK9X-19" style="edgeStyle=orthogonalEdgeStyle;rounded=0;orthogonalLoop=1;jettySize=auto;html=1;exitX=0.5;exitY=1;exitDx=0;exitDy=0;entryX=0.5;entryY=0;entryDx=0;entryDy=0;" edge="1" parent="1" source="cZZAomPa4nCYVF2yaK9X-3" target="cZZAomPa4nCYVF2yaK9X-6">
          <mxGeometry relative="1" as="geometry" />
        </mxCell>
        <mxCell id="cZZAomPa4nCYVF2yaK9X-3" value="Login" style="html=1;align=center;verticalAlign=middle;rounded=1;absoluteArcSize=1;arcSize=10;dashed=0;whiteSpace=wrap;" vertex="1" parent="1">
          <mxGeometry x="355" y="90" width="140" height="30" as="geometry" />
        </mxCell>
        <mxCell id="cZZAomPa4nCYVF2yaK9X-4" style="edgeStyle=orthogonalEdgeStyle;rounded=0;orthogonalLoop=1;jettySize=auto;html=1;exitX=0.5;exitY=1;exitDx=0;exitDy=0;" edge="1" parent="1" source="cZZAomPa4nCYVF2yaK9X-3" target="cZZAomPa4nCYVF2yaK9X-3">
          <mxGeometry relative="1" as="geometry" />
        </mxCell>
        <mxCell id="cZZAomPa4nCYVF2yaK9X-20" style="edgeStyle=orthogonalEdgeStyle;rounded=0;orthogonalLoop=1;jettySize=auto;html=1;exitX=0.5;exitY=1;exitDx=0;exitDy=0;entryX=0.5;entryY=0;entryDx=0;entryDy=0;" edge="1" parent="1" source="cZZAomPa4nCYVF2yaK9X-6">
          <mxGeometry relative="1" as="geometry">
            <mxPoint x="425" y="210" as="targetPoint" />
          </mxGeometry>
        </mxCell>
        <mxCell id="cZZAomPa4nCYVF2yaK9X-6" value="Enter OTP" style="html=1;align=center;verticalAlign=middle;rounded=1;absoluteArcSize=1;arcSize=10;dashed=0;whiteSpace=wrap;" vertex="1" parent="1">
          <mxGeometry x="355" y="140" width="140" height="30" as="geometry" />
        </mxCell>
        <mxCell id="cZZAomPa4nCYVF2yaK9X-22" style="edgeStyle=orthogonalEdgeStyle;rounded=0;orthogonalLoop=1;jettySize=auto;html=1;exitX=0.5;exitY=1;exitDx=0;exitDy=0;entryX=0.5;entryY=0;entryDx=0;entryDy=0;" edge="1" parent="1" source="cZZAomPa4nCYVF2yaK9X-7" target="cZZAomPa4nCYVF2yaK9X-8">
          <mxGeometry relative="1" as="geometry" />
        </mxCell>
        <mxCell id="cZZAomPa4nCYVF2yaK9X-7" value="view menu" style="html=1;align=center;verticalAlign=middle;rounded=1;absoluteArcSize=1;arcSize=10;dashed=0;whiteSpace=wrap;" vertex="1" parent="1">
          <mxGeometry x="355" y="320" width="140" height="30" as="geometry" />
        </mxCell>
        <mxCell id="cZZAomPa4nCYVF2yaK9X-23" style="edgeStyle=orthogonalEdgeStyle;rounded=0;orthogonalLoop=1;jettySize=auto;html=1;exitX=0.5;exitY=1;exitDx=0;exitDy=0;entryX=0.5;entryY=0;entryDx=0;entryDy=0;" edge="1" parent="1" source="cZZAomPa4nCYVF2yaK9X-8" target="cZZAomPa4nCYVF2yaK9X-9">
          <mxGeometry relative="1" as="geometry" />
        </mxCell>
        <mxCell id="cZZAomPa4nCYVF2yaK9X-8" value="Select items" style="html=1;align=center;verticalAlign=middle;rounded=1;absoluteArcSize=1;arcSize=10;dashed=0;whiteSpace=wrap;" vertex="1" parent="1">
          <mxGeometry x="355" y="370" width="140" height="30" as="geometry" />
        </mxCell>
        <mxCell id="cZZAomPa4nCYVF2yaK9X-24" style="edgeStyle=orthogonalEdgeStyle;rounded=0;orthogonalLoop=1;jettySize=auto;html=1;exitX=0.5;exitY=1;exitDx=0;exitDy=0;entryX=0.5;entryY=0;entryDx=0;entryDy=0;" edge="1" parent="1" source="cZZAomPa4nCYVF2yaK9X-9" target="cZZAomPa4nCYVF2yaK9X-10">
          <mxGeometry relative="1" as="geometry" />
        </mxCell>
        <mxCell id="cZZAomPa4nCYVF2yaK9X-9" value="Total bill" style="html=1;align=center;verticalAlign=middle;rounded=1;absoluteArcSize=1;arcSize=10;dashed=0;whiteSpace=wrap;" vertex="1" parent="1">
          <mxGeometry x="355" y="420" width="140" height="30" as="geometry" />
        </mxCell>
        <mxCell id="cZZAomPa4nCYVF2yaK9X-10" value="Confirm Order" style="html=1;align=center;verticalAlign=middle;rounded=1;absoluteArcSize=1;arcSize=10;dashed=0;whiteSpace=wrap;" vertex="1" parent="1">
          <mxGeometry x="355" y="470" width="140" height="30" as="geometry" />
        </mxCell>
        <mxCell id="cZZAomPa4nCYVF2yaK9X-44" style="edgeStyle=orthogonalEdgeStyle;rounded=0;orthogonalLoop=1;jettySize=auto;html=1;exitX=0.5;exitY=1;exitDx=0;exitDy=0;entryX=0.5;entryY=0;entryDx=0;entryDy=0;" edge="1" parent="1" source="cZZAomPa4nCYVF2yaK9X-12" target="cZZAomPa4nCYVF2yaK9X-43">
          <mxGeometry relative="1" as="geometry" />
        </mxCell>
        <mxCell id="cZZAomPa4nCYVF2yaK9X-12" value="Delivery" style="html=1;align=center;verticalAlign=middle;rounded=1;absoluteArcSize=1;arcSize=10;dashed=0;whiteSpace=wrap;" vertex="1" parent="1">
          <mxGeometry x="355" y="750" width="140" height="30" as="geometry" />
        </mxCell>
        <mxCell id="cZZAomPa4nCYVF2yaK9X-33" style="edgeStyle=orthogonalEdgeStyle;rounded=0;orthogonalLoop=1;jettySize=auto;html=1;exitX=0.265;exitY=0.48;exitDx=0;exitDy=0;exitPerimeter=0;" edge="1" parent="1" source="cZZAomPa4nCYVF2yaK9X-27" target="cZZAomPa4nCYVF2yaK9X-29">
          <mxGeometry relative="1" as="geometry">
            <Array as="points">
              <mxPoint x="320" y="585" />
            </Array>
          </mxGeometry>
        </mxCell>
        <mxCell id="cZZAomPa4nCYVF2yaK9X-54" style="edgeStyle=orthogonalEdgeStyle;rounded=0;orthogonalLoop=1;jettySize=auto;html=1;" edge="1" parent="1" source="cZZAomPa4nCYVF2yaK9X-27" target="cZZAomPa4nCYVF2yaK9X-51">
          <mxGeometry relative="1" as="geometry" />
        </mxCell>
        <mxCell id="cZZAomPa4nCYVF2yaK9X-27" value="" style="shape=line;html=1;strokeWidth=6;strokeColor=#ff0000;" vertex="1" parent="1">
          <mxGeometry x="250" y="580" width="350" height="10" as="geometry" />
        </mxCell>
        <mxCell id="cZZAomPa4nCYVF2yaK9X-29" value="Payment" style="text;html=1;align=center;verticalAlign=middle;resizable=0;points=[];autosize=1;strokeColor=none;fillColor=none;" vertex="1" parent="1">
          <mxGeometry x="285" y="620" width="70" height="30" as="geometry" />
        </mxCell>
        <mxCell id="cZZAomPa4nCYVF2yaK9X-32" value="Banks Accept" style="text;html=1;align=center;verticalAlign=middle;resizable=0;points=[];autosize=1;strokeColor=none;fillColor=none;" vertex="1" parent="1">
          <mxGeometry x="495" y="620" width="100" height="30" as="geometry" />
        </mxCell>
        <mxCell id="cZZAomPa4nCYVF2yaK9X-34" style="edgeStyle=orthogonalEdgeStyle;rounded=0;orthogonalLoop=1;jettySize=auto;html=1;exitX=0.843;exitY=0.335;exitDx=0;exitDy=0;exitPerimeter=0;entryX=0.528;entryY=0.07;entryDx=0;entryDy=0;entryPerimeter=0;" edge="1" parent="1" source="cZZAomPa4nCYVF2yaK9X-27">
          <mxGeometry relative="1" as="geometry">
            <mxPoint x="542.18" y="583.0600000000001" as="sourcePoint" />
            <mxPoint x="545.63" y="620" as="targetPoint" />
            <Array as="points">
              <mxPoint x="545" y="608" />
              <mxPoint x="546" y="608" />
            </Array>
          </mxGeometry>
        </mxCell>
        <mxCell id="cZZAomPa4nCYVF2yaK9X-35" value="" style="shape=line;html=1;strokeWidth=6;strokeColor=#ff0000;" vertex="1" parent="1">
          <mxGeometry x="325" y="700" width="200" height="10" as="geometry" />
        </mxCell>
        <mxCell id="cZZAomPa4nCYVF2yaK9X-37" value="" style="endArrow=classic;html=1;rounded=0;exitX=0.521;exitY=1.039;exitDx=0;exitDy=0;exitPerimeter=0;" edge="1" parent="1" source="cZZAomPa4nCYVF2yaK9X-29" target="cZZAomPa4nCYVF2yaK9X-35">
          <mxGeometry width="50" height="50" relative="1" as="geometry">
            <mxPoint x="400" y="660" as="sourcePoint" />
            <mxPoint x="450" y="610" as="targetPoint" />
          </mxGeometry>
        </mxCell>
        <mxCell id="cZZAomPa4nCYVF2yaK9X-38" value="" style="endArrow=classic;html=1;rounded=0;exitX=0.574;exitY=1.039;exitDx=0;exitDy=0;exitPerimeter=0;" edge="1" parent="1" source="cZZAomPa4nCYVF2yaK9X-32" target="cZZAomPa4nCYVF2yaK9X-35">
          <mxGeometry width="50" height="50" relative="1" as="geometry">
            <mxPoint x="400" y="660" as="sourcePoint" />
            <mxPoint x="450" y="610" as="targetPoint" />
          </mxGeometry>
        </mxCell>
        <mxCell id="cZZAomPa4nCYVF2yaK9X-39" value="" style="endArrow=classic;html=1;rounded=0;exitX=0.501;exitY=0.48;exitDx=0;exitDy=0;exitPerimeter=0;" edge="1" parent="1" source="cZZAomPa4nCYVF2yaK9X-35">
          <mxGeometry width="50" height="50" relative="1" as="geometry">
            <mxPoint x="400" y="660" as="sourcePoint" />
            <mxPoint x="428" y="750" as="targetPoint" />
          </mxGeometry>
        </mxCell>
        <mxCell id="cZZAomPa4nCYVF2yaK9X-42" style="edgeStyle=orthogonalEdgeStyle;rounded=0;orthogonalLoop=1;jettySize=auto;html=1;exitX=0.5;exitY=1;exitDx=0;exitDy=0;entryX=0.501;entryY=0.755;entryDx=0;entryDy=0;entryPerimeter=0;" edge="1" parent="1" source="cZZAomPa4nCYVF2yaK9X-10" target="cZZAomPa4nCYVF2yaK9X-27">
          <mxGeometry relative="1" as="geometry" />
        </mxCell>
        <mxCell id="cZZAomPa4nCYVF2yaK9X-43" value="" style="ellipse;html=1;shape=endState;fillColor=#000000;strokeColor=#ff0000;" vertex="1" parent="1">
          <mxGeometry x="410" y="820" width="30" height="30" as="geometry" />
        </mxCell>
        <mxCell id="cZZAomPa4nCYVF2yaK9X-48" value="Condition" style="rhombus;whiteSpace=wrap;html=1;fontColor=#000000;fillColor=#ffffc0;strokeColor=#ff0000;" vertex="1" parent="1">
          <mxGeometry x="385" y="210" width="80" height="40" as="geometry" />
        </mxCell>
        <mxCell id="cZZAomPa4nCYVF2yaK9X-49" value="no" style="edgeStyle=orthogonalEdgeStyle;html=1;align=left;verticalAlign=bottom;endArrow=open;endSize=8;strokeColor=#ff0000;rounded=0;entryX=1;entryY=0.5;entryDx=0;entryDy=0;exitX=1;exitY=0.5;exitDx=0;exitDy=0;" edge="1" source="cZZAomPa4nCYVF2yaK9X-48" parent="1" target="cZZAomPa4nCYVF2yaK9X-12">
          <mxGeometry x="-1" relative="1" as="geometry">
            <mxPoint x="679.94" y="772.53" as="targetPoint" />
            <mxPoint x="599.9988235294118" y="250.00058823529415" as="sourcePoint" />
            <Array as="points">
              <mxPoint x="660" y="230" />
              <mxPoint x="660" y="765" />
            </Array>
          </mxGeometry>
        </mxCell>
        <mxCell id="cZZAomPa4nCYVF2yaK9X-50" value="yes" style="edgeStyle=orthogonalEdgeStyle;html=1;align=left;verticalAlign=top;endArrow=open;endSize=8;strokeColor=#ff0000;rounded=0;entryX=0.5;entryY=0;entryDx=0;entryDy=0;exitX=0.5;exitY=1;exitDx=0;exitDy=0;" edge="1" source="cZZAomPa4nCYVF2yaK9X-48" parent="1" target="cZZAomPa4nCYVF2yaK9X-7">
          <mxGeometry x="-0.1429" y="-15" relative="1" as="geometry">
            <mxPoint x="420" y="300" as="targetPoint" />
            <Array as="points">
              <mxPoint x="425" y="270" />
              <mxPoint x="425" y="270" />
            </Array>
            <mxPoint y="1" as="offset" />
          </mxGeometry>
        </mxCell>
        <mxCell id="cZZAomPa4nCYVF2yaK9X-55" style="edgeStyle=orthogonalEdgeStyle;rounded=0;orthogonalLoop=1;jettySize=auto;html=1;" edge="1" parent="1" source="cZZAomPa4nCYVF2yaK9X-51" target="cZZAomPa4nCYVF2yaK9X-35">
          <mxGeometry relative="1" as="geometry" />
        </mxCell>
        <mxCell id="cZZAomPa4nCYVF2yaK9X-51" value="Payment Gateway" style="text;html=1;align=center;verticalAlign=middle;resizable=0;points=[];autosize=1;strokeColor=none;fillColor=none;" vertex="1" parent="1">
          <mxGeometry x="365" y="620" width="120" height="30" as="geometry" />
        </mxCell>
      </root>
    </mxGraphModel>
  </diagram>
</mxfile>
